<svg xmlns="http://www.w3.org/2000/svg" viewBox="0 0 1024 1024" width="1024" height="1024">
  <defs>
    <linearGradient id="bg" x1="0" y1="0" x2="0" y2="1">
      <stop offset="0%" stop-color="#1faa55"/>
      <stop offset="100%" stop-color="#0a5c2e"/>
    </linearGradient>
    <radialGradient id="glow" cx="50%" cy="35%" r="65%">
      <stop offset="0%" stop-color="#ffffff" stop-opacity="0.15"/>
      <stop offset="100%" stop-color="#ffffff" stop-opacity="0"/>
    </radialGradient>
    <filter id="soft" x="-10%" y="-10%" width="120%" height="120%">
      <feGaussianBlur stdDeviation="6"/>
    </filter>
  </defs>

  <!-- rounded square icon background (iOS-ish) -->
  <rect x="0" y="0" width="1024" height="1024" rx="225" ry="225" fill="url(#bg)"/>
  <rect x="0" y="0" width="1024" height="1024" rx="225" ry="225" fill="url(#glow)"/>

  <!-- character group, scaled & centered -->
  <g transform="translate(512 540) scale(1.25) translate(-977 -510)">
    <!-- soft shadow under the blob -->
    <ellipse cx="977" cy="780" rx="230" ry="28" fill="#000" opacity="0.25" filter="url(#soft)"/>

    <!-- body (black blob) -->
    <path d="M738.1065310553391,644.5732166297021 C738.1065310553391,805.3025379582324 897.9416067645262,765.0196742940706 956.1417441446002,765.0196742940706 C1080.3019740709506,765.0196742940706 1216.1234636351587,811.510513932023 1216.1234636351587,524.3900414315482 C1216.1234636351587,431.2698689867851 1175.7714125907787,255.89358565876262 1143.1793759167963,255.89358565876262 C1098.1712688868097,255.89358565876262 1157.923415061393,349.0137285014201 949.1790166568735,349.0137285014201 C877.7867897224837,349.0137285014201 915.0348823820732,260.5495232359473 873.130852145299,260.5495232359473 C845.1947530485011,260.54952323594733 738.1065310553391,509.91554752097335 738.1065310553391,644.5732166297021 Z" fill="#0d0d0d"/>

    <!-- left green pupil -->
    <path d="M850.9300137354346,468.8857405766227 C873.3935995913761,468.033531889968 893.0252887060756,503.8356733374523 894.7297066986075,548.76286137158 C896.4341246911396,593.6900494057078 879.571435810028,630.876690466991 857.1078499540865,631.7288991536458 C834.6442640981451,632.5811078403004 815.0125749834456,596.7789663928161 813.3081569909136,551.8517783586884 C811.6037389983816,506.9245903245607 828.4664278794932,469.7379492632774 850.9300137354346,468.8857405766227 Z" fill="#27c16b"/>
    <!-- right green pupil -->
    <path d="M1026.6946318808368,456.0554913951935 C1054.748110865561,460.85599328077404 1070.4302890503848,506.2801030044024 1061.6826854036863,557.3999069162546 C1052.9350817569875,608.5197108281069 1023.0415325075697,646.1449174066418 994.9880535228455,641.3444155210611 C966.9345745381212,636.5439136354806 951.2523963532974,591.1198039118522 959.999999999996,540 C968.7476036466946,488.8801960881477 998.6411528961124,451.2549895096129 1026.6946318808368,456.0554913951935 Z" fill="#27c16b"/>
  </g>
</svg>
